<svg width="131" height="117" viewBox="0 0 131 117" fill="none" xmlns="http://www.w3.org/2000/svg">
<g opacity="0.1">
<mask id="path-1-outside-1_548_120" maskUnits="userSpaceOnUse" x="-1" y="23" width="132" height="89" fill="black">
<rect fill="white" x="-1" y="23" width="132" height="89"/>
<path d="M5 31.3636C4.12121 31.3636 3.36742 31.0568 2.73864 30.4432C2.11742 29.822 1.81061 29.0682 1.81818 28.1818C1.81061 27.3182 2.11742 26.5795 2.73864 25.9659C3.36742 25.3523 4.12121 25.0455 5 25.0455C5.83333 25.0455 6.56818 25.3523 7.20455 25.9659C7.84849 26.5795 8.17424 27.3182 8.18182 28.1818C8.17424 28.7727 8.01894 29.3106 7.71591 29.7955C7.42045 30.2727 7.03409 30.6553 6.55682 30.9432C6.07955 31.2235 5.56061 31.3636 5 31.3636ZM45.1625 31.3636C44.2837 31.3636 43.5299 31.0568 42.9011 30.4432C42.2799 29.822 41.9731 29.0682 41.9807 28.1818C41.9731 27.3182 42.2799 26.5795 42.9011 25.9659C43.5299 25.3523 44.2837 25.0455 45.1625 25.0455C45.9958 25.0455 46.7307 25.3523 47.367 25.9659C48.011 26.5795 48.3367 27.3182 48.3443 28.1818C48.3367 28.7727 48.1814 29.3106 47.8784 29.7955C47.583 30.2727 47.1966 30.6553 46.7193 30.9432C46.242 31.2235 45.7231 31.3636 45.1625 31.3636ZM85.325 31.3636C84.4462 31.3636 83.6924 31.0568 83.0636 30.4432C82.4424 29.822 82.1356 29.0682 82.1432 28.1818C82.1356 27.3182 82.4424 26.5795 83.0636 25.9659C83.6924 25.3523 84.4462 25.0455 85.325 25.0455C86.1583 25.0455 86.8932 25.3523 87.5295 25.9659C88.1735 26.5795 88.4992 27.3182 88.5068 28.1818C88.4992 28.7727 88.3439 29.3106 88.0409 29.7955C87.7455 30.2727 87.3591 30.6553 86.8818 30.9432C86.4045 31.2235 85.8856 31.3636 85.325 31.3636ZM125.488 31.3636C124.609 31.3636 123.855 31.0568 123.226 30.4432C122.605 29.822 122.298 29.0682 122.306 28.1818C122.298 27.3182 122.605 26.5795 123.226 25.9659C123.855 25.3523 124.609 25.0455 125.488 25.0455C126.321 25.0455 127.056 25.3523 127.692 25.9659C128.336 26.5795 128.662 27.3182 128.669 28.1818C128.662 28.7727 128.506 29.3106 128.203 29.7955C127.908 30.2727 127.522 30.6553 127.044 30.9432C126.567 31.2235 126.048 31.3636 125.488 31.3636ZM5 70.3636C4.12121 70.3636 3.36742 70.0568 2.73864 69.4432C2.11742 68.822 1.81061 68.0682 1.81818 67.1818C1.81061 66.3182 2.11742 65.5795 2.73864 64.9659C3.36742 64.3523 4.12121 64.0455 5 64.0455C5.83333 64.0455 6.56818 64.3523 7.20455 64.9659C7.84849 65.5795 8.17424 66.3182 8.18182 67.1818C8.17424 67.7727 8.01894 68.3106 7.71591 68.7955C7.42045 69.2727 7.03409 69.6553 6.55682 69.9432C6.07955 70.2235 5.56061 70.3636 5 70.3636ZM45.1625 70.3636C44.2837 70.3636 43.5299 70.0568 42.9011 69.4432C42.2799 68.822 41.9731 68.0682 41.9807 67.1818C41.9731 66.3182 42.2799 65.5795 42.9011 64.9659C43.5299 64.3523 44.2837 64.0455 45.1625 64.0455C45.9958 64.0455 46.7307 64.3523 47.367 64.9659C48.011 65.5795 48.3367 66.3182 48.3443 67.1818C48.3367 67.7727 48.1814 68.3106 47.8784 68.7955C47.583 69.2727 47.1966 69.6553 46.7193 69.9432C46.242 70.2235 45.7231 70.3636 45.1625 70.3636ZM85.325 70.3636C84.4462 70.3636 83.6924 70.0568 83.0636 69.4432C82.4424 68.822 82.1356 68.0682 82.1432 67.1818C82.1356 66.3182 82.4424 65.5795 83.0636 64.9659C83.6924 64.3523 84.4462 64.0455 85.325 64.0455C86.1583 64.0455 86.8932 64.3523 87.5295 64.9659C88.1735 65.5795 88.4992 66.3182 88.5068 67.1818C88.4992 67.7727 88.3439 68.3106 88.0409 68.7955C87.7455 69.2727 87.3591 69.6553 86.8818 69.9432C86.4045 70.2235 85.8856 70.3636 85.325 70.3636ZM125.488 70.3636C124.609 70.3636 123.855 70.0568 123.226 69.4432C122.605 68.822 122.298 68.0682 122.306 67.1818C122.298 66.3182 122.605 65.5795 123.226 64.9659C123.855 64.3523 124.609 64.0455 125.488 64.0455C126.321 64.0455 127.056 64.3523 127.692 64.9659C128.336 65.5795 128.662 66.3182 128.669 67.1818C128.662 67.7727 128.506 68.3106 128.203 68.7955C127.908 69.2727 127.522 69.6553 127.044 69.9432C126.567 70.2235 126.048 70.3636 125.488 70.3636ZM5 109.364C4.12121 109.364 3.36742 109.057 2.73864 108.443C2.11742 107.822 1.81061 107.068 1.81818 106.182C1.81061 105.318 2.11742 104.58 2.73864 103.966C3.36742 103.352 4.12121 103.045 5 103.045C5.83333 103.045 6.56818 103.352 7.20455 103.966C7.84849 104.58 8.17424 105.318 8.18182 106.182C8.17424 106.773 8.01894 107.311 7.71591 107.795C7.42045 108.273 7.03409 108.655 6.55682 108.943C6.07955 109.223 5.56061 109.364 5 109.364ZM45.1625 109.364C44.2837 109.364 43.5299 109.057 42.9011 108.443C42.2799 107.822 41.9731 107.068 41.9807 106.182C41.9731 105.318 42.2799 104.58 42.9011 103.966C43.5299 103.352 44.2837 103.045 45.1625 103.045C45.9958 103.045 46.7307 103.352 47.367 103.966C48.011 104.58 48.3367 105.318 48.3443 106.182C48.3367 106.773 48.1814 107.311 47.8784 107.795C47.583 108.273 47.1966 108.655 46.7193 108.943C46.242 109.223 45.7231 109.364 45.1625 109.364ZM85.325 109.364C84.4462 109.364 83.6924 109.057 83.0636 108.443C82.4424 107.822 82.1356 107.068 82.1432 106.182C82.1356 105.318 82.4424 104.58 83.0636 103.966C83.6924 103.352 84.4462 103.045 85.325 103.045C86.1583 103.045 86.8932 103.352 87.5295 103.966C88.1735 104.58 88.4992 105.318 88.5068 106.182C88.4992 106.773 88.3439 107.311 88.0409 107.795C87.7455 108.273 87.3591 108.655 86.8818 108.943C86.4045 109.223 85.8856 109.364 85.325 109.364ZM125.488 109.364C124.609 109.364 123.855 109.057 123.226 108.443C122.605 107.822 122.298 107.068 122.306 106.182C122.298 105.318 122.605 104.58 123.226 103.966C123.855 103.352 124.609 103.045 125.488 103.045C126.321 103.045 127.056 103.352 127.692 103.966C128.336 104.58 128.662 105.318 128.669 106.182C128.662 106.773 128.506 107.311 128.203 107.795C127.908 108.273 127.522 108.655 127.044 108.943C126.567 109.223 126.048 109.364 125.488 109.364Z"/>
</mask>
<path d="M5 31.3636C4.12121 31.3636 3.36742 31.0568 2.73864 30.4432C2.11742 29.822 1.81061 29.0682 1.81818 28.1818C1.81061 27.3182 2.11742 26.5795 2.73864 25.9659C3.36742 25.3523 4.12121 25.0455 5 25.0455C5.83333 25.0455 6.56818 25.3523 7.20455 25.9659C7.84849 26.5795 8.17424 27.3182 8.18182 28.1818C8.17424 28.7727 8.01894 29.3106 7.71591 29.7955C7.42045 30.2727 7.03409 30.6553 6.55682 30.9432C6.07955 31.2235 5.56061 31.3636 5 31.3636ZM45.1625 31.3636C44.2837 31.3636 43.5299 31.0568 42.9011 30.4432C42.2799 29.822 41.9731 29.0682 41.9807 28.1818C41.9731 27.3182 42.2799 26.5795 42.9011 25.9659C43.5299 25.3523 44.2837 25.0455 45.1625 25.0455C45.9958 25.0455 46.7307 25.3523 47.367 25.9659C48.011 26.5795 48.3367 27.3182 48.3443 28.1818C48.3367 28.7727 48.1814 29.3106 47.8784 29.7955C47.583 30.2727 47.1966 30.6553 46.7193 30.9432C46.242 31.2235 45.7231 31.3636 45.1625 31.3636ZM85.325 31.3636C84.4462 31.3636 83.6924 31.0568 83.0636 30.4432C82.4424 29.822 82.1356 29.0682 82.1432 28.1818C82.1356 27.3182 82.4424 26.5795 83.0636 25.9659C83.6924 25.3523 84.4462 25.0455 85.325 25.0455C86.1583 25.0455 86.8932 25.3523 87.5295 25.9659C88.1735 26.5795 88.4992 27.3182 88.5068 28.1818C88.4992 28.7727 88.3439 29.3106 88.0409 29.7955C87.7455 30.2727 87.3591 30.6553 86.8818 30.9432C86.4045 31.2235 85.8856 31.3636 85.325 31.3636ZM125.488 31.3636C124.609 31.3636 123.855 31.0568 123.226 30.4432C122.605 29.822 122.298 29.0682 122.306 28.1818C122.298 27.3182 122.605 26.5795 123.226 25.9659C123.855 25.3523 124.609 25.0455 125.488 25.0455C126.321 25.0455 127.056 25.3523 127.692 25.9659C128.336 26.5795 128.662 27.3182 128.669 28.1818C128.662 28.7727 128.506 29.3106 128.203 29.7955C127.908 30.2727 127.522 30.6553 127.044 30.9432C126.567 31.2235 126.048 31.3636 125.488 31.3636ZM5 70.3636C4.12121 70.3636 3.36742 70.0568 2.73864 69.4432C2.11742 68.822 1.81061 68.0682 1.81818 67.1818C1.81061 66.3182 2.11742 65.5795 2.73864 64.9659C3.36742 64.3523 4.12121 64.0455 5 64.0455C5.83333 64.0455 6.56818 64.3523 7.20455 64.9659C7.84849 65.5795 8.17424 66.3182 8.18182 67.1818C8.17424 67.7727 8.01894 68.3106 7.71591 68.7955C7.42045 69.2727 7.03409 69.6553 6.55682 69.9432C6.07955 70.2235 5.56061 70.3636 5 70.3636ZM45.1625 70.3636C44.2837 70.3636 43.5299 70.0568 42.9011 69.4432C42.2799 68.822 41.9731 68.0682 41.9807 67.1818C41.9731 66.3182 42.2799 65.5795 42.9011 64.9659C43.5299 64.3523 44.2837 64.0455 45.1625 64.0455C45.9958 64.0455 46.7307 64.3523 47.367 64.9659C48.011 65.5795 48.3367 66.3182 48.3443 67.1818C48.3367 67.7727 48.1814 68.3106 47.8784 68.7955C47.583 69.2727 47.1966 69.6553 46.7193 69.9432C46.242 70.2235 45.7231 70.3636 45.1625 70.3636ZM85.325 70.3636C84.4462 70.3636 83.6924 70.0568 83.0636 69.4432C82.4424 68.822 82.1356 68.0682 82.1432 67.1818C82.1356 66.3182 82.4424 65.5795 83.0636 64.9659C83.6924 64.3523 84.4462 64.0455 85.325 64.0455C86.1583 64.0455 86.8932 64.3523 87.5295 64.9659C88.1735 65.5795 88.4992 66.3182 88.5068 67.1818C88.4992 67.7727 88.3439 68.3106 88.0409 68.7955C87.7455 69.2727 87.3591 69.6553 86.8818 69.9432C86.4045 70.2235 85.8856 70.3636 85.325 70.3636ZM125.488 70.3636C124.609 70.3636 123.855 70.0568 123.226 69.4432C122.605 68.822 122.298 68.0682 122.306 67.1818C122.298 66.3182 122.605 65.5795 123.226 64.9659C123.855 64.3523 124.609 64.0455 125.488 64.0455C126.321 64.0455 127.056 64.3523 127.692 64.9659C128.336 65.5795 128.662 66.3182 128.669 67.1818C128.662 67.7727 128.506 68.3106 128.203 68.7955C127.908 69.2727 127.522 69.6553 127.044 69.9432C126.567 70.2235 126.048 70.3636 125.488 70.3636ZM5 109.364C4.12121 109.364 3.36742 109.057 2.73864 108.443C2.11742 107.822 1.81061 107.068 1.81818 106.182C1.81061 105.318 2.11742 104.58 2.73864 103.966C3.36742 103.352 4.12121 103.045 5 103.045C5.83333 103.045 6.56818 103.352 7.20455 103.966C7.84849 104.58 8.17424 105.318 8.18182 106.182C8.17424 106.773 8.01894 107.311 7.71591 107.795C7.42045 108.273 7.03409 108.655 6.55682 108.943C6.07955 109.223 5.56061 109.364 5 109.364ZM45.1625 109.364C44.2837 109.364 43.5299 109.057 42.9011 108.443C42.2799 107.822 41.9731 107.068 41.9807 106.182C41.9731 105.318 42.2799 104.58 42.9011 103.966C43.5299 103.352 44.2837 103.045 45.1625 103.045C45.9958 103.045 46.7307 103.352 47.367 103.966C48.011 104.58 48.3367 105.318 48.3443 106.182C48.3367 106.773 48.1814 107.311 47.8784 107.795C47.583 108.273 47.1966 108.655 46.7193 108.943C46.242 109.223 45.7231 109.364 45.1625 109.364ZM85.325 109.364C84.4462 109.364 83.6924 109.057 83.0636 108.443C82.4424 107.822 82.1356 107.068 82.1432 106.182C82.1356 105.318 82.4424 104.58 83.0636 103.966C83.6924 103.352 84.4462 103.045 85.325 103.045C86.1583 103.045 86.8932 103.352 87.5295 103.966C88.1735 104.58 88.4992 105.318 88.5068 106.182C88.4992 106.773 88.3439 107.311 88.0409 107.795C87.7455 108.273 87.3591 108.655 86.8818 108.943C86.4045 109.223 85.8856 109.364 85.325 109.364ZM125.488 109.364C124.609 109.364 123.855 109.057 123.226 108.443C122.605 107.822 122.298 107.068 122.306 106.182C122.298 105.318 122.605 104.58 123.226 103.966C123.855 103.352 124.609 103.045 125.488 103.045C126.321 103.045 127.056 103.352 127.692 103.966C128.336 104.58 128.662 105.318 128.669 106.182C128.662 106.773 128.506 107.311 128.203 107.795C127.908 108.273 127.522 108.655 127.044 108.943C126.567 109.223 126.048 109.364 125.488 109.364Z" fill="black"/>
<path d="M2.73864 30.4432L1.32442 31.8574L1.33305 31.866L1.34177 31.8745L2.73864 30.4432ZM1.81818 28.1818L3.81811 28.1989L3.81826 28.1816L3.8181 28.1643L1.81818 28.1818ZM2.73864 25.9659L1.34175 24.5345L1.33313 24.543L2.73864 25.9659ZM7.20455 25.9659L5.81625 27.4056L5.82481 27.4138L7.20455 25.9659ZM8.18182 28.1818L10.1817 28.2075L10.1819 28.1859L10.1817 28.1643L8.18182 28.1818ZM7.71591 29.7955L6.0199 28.7354L6.01538 28.7427L7.71591 29.7955ZM6.55682 30.9432L7.56966 32.6678L7.57977 32.6618L7.5898 32.6558L6.55682 30.9432ZM5 29.3636C4.64307 29.3636 4.39062 29.2608 4.1355 29.0118L1.34177 31.8745C2.34423 32.8528 3.59936 33.3636 5 33.3636V29.3636ZM4.15285 29.029C3.91471 28.7908 3.81507 28.5544 3.81811 28.1989L-0.181745 28.1647C-0.193859 29.582 0.320134 30.8531 1.32442 31.8574L4.15285 29.029ZM3.8181 28.1643C3.81533 27.8481 3.90287 27.6271 4.14415 27.3888L1.33313 24.543C0.331978 25.532 -0.194119 26.7883 -0.181741 28.1994L3.8181 28.1643ZM4.1355 27.3973C4.39062 27.1483 4.64307 27.0455 5 27.0455V23.0455C3.59936 23.0455 2.34423 23.5563 1.34177 24.5346L4.1355 27.3973ZM5 27.0455C5.28173 27.0455 5.52765 27.1273 5.81627 27.4056L8.59282 24.5262C7.60871 23.5773 6.38493 23.0455 5 23.0455V27.0455ZM5.82481 27.4138C6.09022 27.6667 6.17922 27.8947 6.18189 28.1994L10.1817 28.1643C10.1693 26.7417 9.60675 25.4924 8.58428 24.518L5.82481 27.4138ZM6.18198 28.1562C6.17893 28.3939 6.12217 28.5718 6.01991 28.7355L9.41191 30.8555C9.91571 30.0494 10.1696 29.1516 10.1817 28.2075L6.18198 28.1562ZM6.01538 28.7427C5.88571 28.9522 5.7274 29.1078 5.52383 29.2306L7.5898 32.6558C8.34079 32.2028 8.9552 31.5932 9.41644 30.8482L6.01538 28.7427ZM5.54397 29.2186C5.3779 29.3161 5.2093 29.3636 5 29.3636V33.3636C5.91191 33.3636 6.7812 33.1308 7.56966 32.6678L5.54397 29.2186ZM42.9011 30.4432L41.4869 31.8574L41.4955 31.866L41.5043 31.8745L42.9011 30.4432ZM41.9807 28.1818L43.9806 28.1989L43.9808 28.1816L43.9806 28.1643L41.9807 28.1818ZM42.9011 25.9659L41.5042 24.5345L41.4956 24.543L42.9011 25.9659ZM47.367 25.9659L45.9787 27.4056L45.9873 27.4138L47.367 25.9659ZM48.3443 28.1818L50.3442 28.2075L50.3444 28.1859L50.3442 28.1643L48.3443 28.1818ZM47.8784 29.7955L46.1824 28.7354L46.1779 28.7427L47.8784 29.7955ZM46.7193 30.9432L47.7322 32.6678L47.7423 32.6618L47.7523 32.6558L46.7193 30.9432ZM45.1625 29.3636C44.8056 29.3636 44.5531 29.2608 44.298 29.0118L41.5043 31.8745C42.5067 32.8528 43.7619 33.3636 45.1625 33.3636V29.3636ZM44.3153 29.029C44.0772 28.7908 43.9776 28.5544 43.9806 28.1989L39.9808 28.1647C39.9686 29.582 40.4826 30.8531 41.4869 31.8574L44.3153 29.029ZM43.9806 28.1643C43.9778 27.8481 44.0654 27.6271 44.3066 27.3888L41.4956 24.543C40.4945 25.532 39.9684 26.7883 39.9808 28.1994L43.9806 28.1643ZM44.298 27.3973C44.5531 27.1483 44.8056 27.0455 45.1625 27.0455V23.0455C43.7619 23.0455 42.5067 23.5563 41.5043 24.5346L44.298 27.3973ZM45.1625 27.0455C45.4442 27.0455 45.6902 27.1273 45.9788 27.4056L48.7553 24.5262C47.7712 23.5773 46.5474 23.0455 45.1625 23.0455V27.0455ZM45.9873 27.4138C46.2527 27.6667 46.3417 27.8947 46.3444 28.1994L50.3442 28.1643C50.3318 26.7417 49.7692 25.4924 48.7468 24.518L45.9873 27.4138ZM46.3445 28.1562C46.3414 28.3939 46.2847 28.5718 46.1824 28.7355L49.5744 30.8555C50.0782 30.0494 50.332 29.1516 50.3442 28.2075L46.3445 28.1562ZM46.1779 28.7427C46.0482 28.9522 45.8899 29.1078 45.6863 29.2306L47.7523 32.6558C48.5033 32.2028 49.1177 31.5932 49.5789 30.8482L46.1779 28.7427ZM45.7065 29.2186C45.5404 29.3161 45.3718 29.3636 45.1625 29.3636V33.3636C46.0744 33.3636 46.9437 33.1308 47.7322 32.6678L45.7065 29.2186ZM83.0636 30.4432L81.6494 31.8574L81.658 31.866L81.6668 31.8745L83.0636 30.4432ZM82.1432 28.1818L84.1431 28.1989L84.1433 28.1816L84.1431 28.1643L82.1432 28.1818ZM83.0636 25.9659L81.6667 24.5345L81.6581 24.543L83.0636 25.9659ZM87.5295 25.9659L86.1412 27.4056L86.1498 27.4138L87.5295 25.9659ZM88.5068 28.1818L90.5067 28.2075L90.5069 28.1859L90.5067 28.1643L88.5068 28.1818ZM88.0409 29.7955L86.3449 28.7354L86.3404 28.7427L88.0409 29.7955ZM86.8818 30.9432L87.8947 32.6678L87.9048 32.6618L87.9148 32.6558L86.8818 30.9432ZM85.325 29.3636C84.9681 29.3636 84.7156 29.2608 84.4605 29.0118L81.6668 31.8745C82.6692 32.8528 83.9244 33.3636 85.325 33.3636V29.3636ZM84.4778 29.029C84.2397 28.7908 84.1401 28.5544 84.1431 28.1989L80.1433 28.1647C80.1311 29.582 80.6451 30.8531 81.6494 31.8574L84.4778 29.029ZM84.1431 28.1643C84.1403 27.8481 84.2279 27.6271 84.4691 27.3888L81.6581 24.543C80.657 25.532 80.1309 26.7883 80.1433 28.1994L84.1431 28.1643ZM84.4605 27.3973C84.7156 27.1483 84.9681 27.0455 85.325 27.0455V23.0455C83.9244 23.0455 82.6692 23.5563 81.6668 24.5346L84.4605 27.3973ZM85.325 27.0455C85.6067 27.0455 85.8527 27.1273 86.1413 27.4056L88.9178 24.5262C87.9337 23.5773 86.7099 23.0455 85.325 23.0455V27.0455ZM86.1498 27.4138C86.4152 27.6667 86.5042 27.8947 86.5069 28.1994L90.5067 28.1643C90.4943 26.7417 89.9317 25.4924 88.9093 24.518L86.1498 27.4138ZM86.507 28.1562C86.5039 28.3939 86.4472 28.5718 86.3449 28.7355L89.7369 30.8555C90.2407 30.0494 90.4945 29.1516 90.5067 28.2075L86.507 28.1562ZM86.3404 28.7427C86.2107 28.9522 86.0524 29.1078 85.8488 29.2306L87.9148 32.6558C88.6658 32.2028 89.2802 31.5932 89.7414 30.8482L86.3404 28.7427ZM85.869 29.2186C85.7029 29.3161 85.5343 29.3636 85.325 29.3636V33.3636C86.2369 33.3636 87.1062 33.1308 87.8947 32.6678L85.869 29.2186ZM123.226 30.4432L121.812 31.8574L121.821 31.866L121.829 31.8745L123.226 30.4432ZM122.306 28.1818L124.306 28.1989L124.306 28.1816L124.306 28.1643L122.306 28.1818ZM123.226 25.9659L121.829 24.5345L121.821 24.543L123.226 25.9659ZM127.692 25.9659L126.304 27.4056L126.312 27.4138L127.692 25.9659ZM128.669 28.1818L130.669 28.2075L130.669 28.1859L130.669 28.1643L128.669 28.1818ZM128.203 29.7955L126.507 28.7354L126.503 28.7427L128.203 29.7955ZM127.044 30.9432L128.057 32.6678L128.067 32.6618L128.077 32.6558L127.044 30.9432ZM125.488 29.3636C125.131 29.3636 124.878 29.2608 124.623 29.0118L121.829 31.8745C122.832 32.8528 124.087 33.3636 125.488 33.3636V29.3636ZM124.64 29.029C124.402 28.7908 124.303 28.5544 124.306 28.1989L120.306 28.1647C120.294 29.582 120.808 30.8531 121.812 31.8574L124.64 29.029ZM124.306 28.1643C124.303 27.8481 124.39 27.6271 124.632 27.3888L121.821 24.543C120.819 25.532 120.293 26.7883 120.306 28.1994L124.306 28.1643ZM124.623 27.3973C124.878 27.1483 125.131 27.0455 125.488 27.0455V23.0455C124.087 23.0455 122.832 23.5563 121.829 24.5346L124.623 27.3973ZM125.488 27.0455C125.769 27.0455 126.015 27.1273 126.304 27.4056L129.08 24.5262C128.096 23.5773 126.872 23.0455 125.488 23.0455V27.0455ZM126.312 27.4138C126.578 27.6667 126.667 27.8947 126.669 28.1994L130.669 28.1643C130.657 26.7417 130.094 25.4924 129.072 24.518L126.312 27.4138ZM126.669 28.1562C126.666 28.3939 126.61 28.5718 126.507 28.7355L129.899 30.8555C130.403 30.0494 130.657 29.1516 130.669 28.2075L126.669 28.1562ZM126.503 28.7427C126.373 28.9522 126.215 29.1078 126.011 29.2306L128.077 32.6558C128.828 32.2028 129.443 31.5932 129.904 30.8482L126.503 28.7427ZM126.031 29.2186C125.865 29.3161 125.697 29.3636 125.488 29.3636V33.3636C126.399 33.3636 127.269 33.1308 128.057 32.6678L126.031 29.2186ZM2.73864 69.4432L1.32442 70.8574L1.33305 70.866L1.34177 70.8745L2.73864 69.4432ZM1.81818 67.1818L3.81811 67.1989L3.81826 67.1816L3.8181 67.1643L1.81818 67.1818ZM2.73864 64.9659L1.34175 63.5345L1.33313 63.543L2.73864 64.9659ZM7.20455 64.9659L5.81625 66.4056L5.82481 66.4138L7.20455 64.9659ZM8.18182 67.1818L10.1817 67.2075L10.1819 67.1859L10.1817 67.1643L8.18182 67.1818ZM7.71591 68.7955L6.0199 67.7354L6.01538 67.7427L7.71591 68.7955ZM6.55682 69.9432L7.56966 71.6678L7.57977 71.6618L7.5898 71.6558L6.55682 69.9432ZM5 68.3636C4.64307 68.3636 4.39062 68.2608 4.1355 68.0118L1.34177 70.8745C2.34423 71.8528 3.59936 72.3636 5 72.3636V68.3636ZM4.15285 68.029C3.91471 67.7908 3.81507 67.5544 3.81811 67.1989L-0.181745 67.1647C-0.193859 68.582 0.320134 69.8531 1.32442 70.8574L4.15285 68.029ZM3.8181 67.1643C3.81533 66.8481 3.90287 66.6271 4.14415 66.3888L1.33313 63.543C0.331978 64.532 -0.194119 65.7883 -0.181741 67.1994L3.8181 67.1643ZM4.1355 66.3973C4.39062 66.1483 4.64307 66.0455 5 66.0455V62.0455C3.59936 62.0455 2.34423 62.5563 1.34177 63.5346L4.1355 66.3973ZM5 66.0455C5.28173 66.0455 5.52765 66.1273 5.81627 66.4056L8.59282 63.5262C7.60871 62.5773 6.38493 62.0455 5 62.0455V66.0455ZM5.82481 66.4138C6.09022 66.6667 6.17922 66.8947 6.18189 67.1994L10.1817 67.1643C10.1693 65.7417 9.60675 64.4924 8.58428 63.518L5.82481 66.4138ZM6.18198 67.1562C6.17893 67.3939 6.12217 67.5718 6.01991 67.7355L9.41191 69.8555C9.91571 69.0494 10.1696 68.1516 10.1817 67.2075L6.18198 67.1562ZM6.01538 67.7427C5.88571 67.9522 5.7274 68.1078 5.52383 68.2306L7.5898 71.6558C8.34079 71.2028 8.9552 70.5932 9.41644 69.8482L6.01538 67.7427ZM5.54397 68.2186C5.3779 68.3161 5.2093 68.3636 5 68.3636V72.3636C5.91191 72.3636 6.7812 72.1308 7.56966 71.6678L5.54397 68.2186ZM42.9011 69.4432L41.4869 70.8574L41.4955 70.866L41.5043 70.8745L42.9011 69.4432ZM41.9807 67.1818L43.9806 67.1989L43.9808 67.1816L43.9806 67.1643L41.9807 67.1818ZM42.9011 64.9659L41.5042 63.5345L41.4956 63.543L42.9011 64.9659ZM47.367 64.9659L45.9787 66.4056L45.9873 66.4138L47.367 64.9659ZM48.3443 67.1818L50.3442 67.2075L50.3444 67.1859L50.3442 67.1643L48.3443 67.1818ZM47.8784 68.7955L46.1824 67.7354L46.1779 67.7427L47.8784 68.7955ZM46.7193 69.9432L47.7322 71.6678L47.7423 71.6618L47.7523 71.6558L46.7193 69.9432ZM45.1625 68.3636C44.8056 68.3636 44.5531 68.2608 44.298 68.0118L41.5043 70.8745C42.5067 71.8528 43.7619 72.3636 45.1625 72.3636V68.3636ZM44.3153 68.029C44.0772 67.7908 43.9776 67.5544 43.9806 67.1989L39.9808 67.1647C39.9686 68.582 40.4826 69.8531 41.4869 70.8574L44.3153 68.029ZM43.9806 67.1643C43.9778 66.8481 44.0654 66.6271 44.3066 66.3888L41.4956 63.543C40.4945 64.532 39.9684 65.7883 39.9808 67.1994L43.9806 67.1643ZM44.298 66.3973C44.5531 66.1483 44.8056 66.0455 45.1625 66.0455V62.0455C43.7619 62.0455 42.5067 62.5563 41.5043 63.5346L44.298 66.3973ZM45.1625 66.0455C45.4442 66.0455 45.6902 66.1273 45.9788 66.4056L48.7553 63.5262C47.7712 62.5773 46.5474 62.0455 45.1625 62.0455V66.0455ZM45.9873 66.4138C46.2527 66.6667 46.3417 66.8947 46.3444 67.1994L50.3442 67.1643C50.3318 65.7417 49.7692 64.4924 48.7468 63.518L45.9873 66.4138ZM46.3445 67.1562C46.3414 67.3939 46.2847 67.5718 46.1824 67.7355L49.5744 69.8555C50.0782 69.0494 50.332 68.1516 50.3442 67.2075L46.3445 67.1562ZM46.1779 67.7427C46.0482 67.9522 45.8899 68.1078 45.6863 68.2306L47.7523 71.6558C48.5033 71.2028 49.1177 70.5932 49.5789 69.8482L46.1779 67.7427ZM45.7065 68.2186C45.5404 68.3161 45.3718 68.3636 45.1625 68.3636V72.3636C46.0744 72.3636 46.9437 72.1308 47.7322 71.6678L45.7065 68.2186ZM83.0636 69.4432L81.6494 70.8574L81.658 70.866L81.6668 70.8745L83.0636 69.4432ZM82.1432 67.1818L84.1431 67.1989L84.1433 67.1816L84.1431 67.1643L82.1432 67.1818ZM83.0636 64.9659L81.6667 63.5345L81.6581 63.543L83.0636 64.9659ZM87.5295 64.9659L86.1412 66.4056L86.1498 66.4138L87.5295 64.9659ZM88.5068 67.1818L90.5067 67.2075L90.5069 67.1859L90.5067 67.1643L88.5068 67.1818ZM88.0409 68.7955L86.3449 67.7354L86.3404 67.7427L88.0409 68.7955ZM86.8818 69.9432L87.8947 71.6678L87.9048 71.6618L87.9148 71.6558L86.8818 69.9432ZM85.325 68.3636C84.9681 68.3636 84.7156 68.2608 84.4605 68.0118L81.6668 70.8745C82.6692 71.8528 83.9244 72.3636 85.325 72.3636V68.3636ZM84.4778 68.029C84.2397 67.7908 84.1401 67.5544 84.1431 67.1989L80.1433 67.1647C80.1311 68.582 80.6451 69.8531 81.6494 70.8574L84.4778 68.029ZM84.1431 67.1643C84.1403 66.8481 84.2279 66.6271 84.4691 66.3888L81.6581 63.543C80.657 64.532 80.1309 65.7883 80.1433 67.1994L84.1431 67.1643ZM84.4605 66.3973C84.7156 66.1483 84.9681 66.0455 85.325 66.0455V62.0455C83.9244 62.0455 82.6692 62.5563 81.6668 63.5346L84.4605 66.3973ZM85.325 66.0455C85.6067 66.0455 85.8527 66.1273 86.1413 66.4056L88.9178 63.5262C87.9337 62.5773 86.7099 62.0455 85.325 62.0455V66.0455ZM86.1498 66.4138C86.4152 66.6667 86.5042 66.8947 86.5069 67.1994L90.5067 67.1643C90.4943 65.7417 89.9317 64.4924 88.9093 63.518L86.1498 66.4138ZM86.507 67.1562C86.5039 67.3939 86.4472 67.5718 86.3449 67.7355L89.7369 69.8555C90.2407 69.0494 90.4945 68.1516 90.5067 67.2075L86.507 67.1562ZM86.3404 67.7427C86.2107 67.9522 86.0524 68.1078 85.8488 68.2306L87.9148 71.6558C88.6658 71.2028 89.2802 70.5932 89.7414 69.8482L86.3404 67.7427ZM85.869 68.2186C85.7029 68.3161 85.5343 68.3636 85.325 68.3636V72.3636C86.2369 72.3636 87.1062 72.1308 87.8947 71.6678L85.869 68.2186ZM123.226 69.4432L121.812 70.8574L121.821 70.866L121.829 70.8745L123.226 69.4432ZM122.306 67.1818L124.306 67.1989L124.306 67.1816L124.306 67.1643L122.306 67.1818ZM123.226 64.9659L121.829 63.5345L121.821 63.543L123.226 64.9659ZM127.692 64.9659L126.304 66.4056L126.312 66.4138L127.692 64.9659ZM128.669 67.1818L130.669 67.2075L130.669 67.1859L130.669 67.1643L128.669 67.1818ZM128.203 68.7955L126.507 67.7354L126.503 67.7427L128.203 68.7955ZM127.044 69.9432L128.057 71.6678L128.067 71.6618L128.077 71.6558L127.044 69.9432ZM125.488 68.3636C125.131 68.3636 124.878 68.2608 124.623 68.0118L121.829 70.8745C122.832 71.8528 124.087 72.3636 125.488 72.3636V68.3636ZM124.64 68.029C124.402 67.7908 124.303 67.5544 124.306 67.1989L120.306 67.1647C120.294 68.582 120.808 69.8531 121.812 70.8574L124.64 68.029ZM124.306 67.1643C124.303 66.8481 124.39 66.6271 124.632 66.3888L121.821 63.543C120.819 64.532 120.293 65.7883 120.306 67.1994L124.306 67.1643ZM124.623 66.3973C124.878 66.1483 125.131 66.0455 125.488 66.0455V62.0455C124.087 62.0455 122.832 62.5563 121.829 63.5346L124.623 66.3973ZM125.488 66.0455C125.769 66.0455 126.015 66.1273 126.304 66.4056L129.08 63.5262C128.096 62.5773 126.872 62.0455 125.488 62.0455V66.0455ZM126.312 66.4138C126.578 66.6667 126.667 66.8947 126.669 67.1994L130.669 67.1643C130.657 65.7417 130.094 64.4924 129.072 63.518L126.312 66.4138ZM126.669 67.1562C126.666 67.3939 126.61 67.5718 126.507 67.7355L129.899 69.8555C130.403 69.0494 130.657 68.1516 130.669 67.2075L126.669 67.1562ZM126.503 67.7427C126.373 67.9522 126.215 68.1078 126.011 68.2306L128.077 71.6558C128.828 71.2028 129.443 70.5932 129.904 69.8482L126.503 67.7427ZM126.031 68.2186C125.865 68.3161 125.697 68.3636 125.488 68.3636V72.3636C126.399 72.3636 127.269 72.1308 128.057 71.6678L126.031 68.2186ZM2.73864 108.443L1.32442 109.857L1.33305 109.866L1.34177 109.875L2.73864 108.443ZM1.81818 106.182L3.81811 106.199L3.81826 106.182L3.8181 106.164L1.81818 106.182ZM2.73864 103.966L1.34175 102.535L1.33313 102.543L2.73864 103.966ZM7.20455 103.966L5.81625 105.406L5.82481 105.414L7.20455 103.966ZM8.18182 106.182L10.1817 106.207L10.1819 106.186L10.1817 106.164L8.18182 106.182ZM7.71591 107.795L6.0199 106.735L6.01538 106.743L7.71591 107.795ZM6.55682 108.943L7.56966 110.668L7.57977 110.662L7.5898 110.656L6.55682 108.943ZM5 107.364C4.64307 107.364 4.39062 107.261 4.1355 107.012L1.34177 109.875C2.34423 110.853 3.59936 111.364 5 111.364V107.364ZM4.15285 107.029C3.91471 106.791 3.81507 106.554 3.81811 106.199L-0.181745 106.165C-0.193859 107.582 0.320134 108.853 1.32442 109.857L4.15285 107.029ZM3.8181 106.164C3.81533 105.848 3.90287 105.627 4.14415 105.389L1.33313 102.543C0.331978 103.532 -0.194119 104.788 -0.181741 106.199L3.8181 106.164ZM4.1355 105.397C4.39062 105.148 4.64307 105.045 5 105.045V101.045C3.59936 101.045 2.34423 101.556 1.34177 102.535L4.1355 105.397ZM5 105.045C5.28173 105.045 5.52765 105.127 5.81627 105.406L8.59282 102.526C7.60871 101.577 6.38493 101.045 5 101.045V105.045ZM5.82481 105.414C6.09022 105.667 6.17922 105.895 6.18189 106.199L10.1817 106.164C10.1693 104.742 9.60675 103.492 8.58428 102.518L5.82481 105.414ZM6.18198 106.156C6.17893 106.394 6.12217 106.572 6.01991 106.735L9.41191 108.855C9.91571 108.049 10.1696 107.152 10.1817 106.207L6.18198 106.156ZM6.01538 106.743C5.88571 106.952 5.7274 107.108 5.52383 107.231L7.5898 110.656C8.34079 110.203 8.9552 109.593 9.41644 108.848L6.01538 106.743ZM5.54397 107.219C5.3779 107.316 5.2093 107.364 5 107.364V111.364C5.91191 111.364 6.7812 111.131 7.56966 110.668L5.54397 107.219ZM42.9011 108.443L41.4869 109.857L41.4955 109.866L41.5043 109.875L42.9011 108.443ZM41.9807 106.182L43.9806 106.199L43.9808 106.182L43.9806 106.164L41.9807 106.182ZM42.9011 103.966L41.5042 102.535L41.4956 102.543L42.9011 103.966ZM47.367 103.966L45.9787 105.406L45.9873 105.414L47.367 103.966ZM48.3443 106.182L50.3442 106.207L50.3444 106.186L50.3442 106.164L48.3443 106.182ZM47.8784 107.795L46.1824 106.735L46.1779 106.743L47.8784 107.795ZM46.7193 108.943L47.7322 110.668L47.7423 110.662L47.7523 110.656L46.7193 108.943ZM45.1625 107.364C44.8056 107.364 44.5531 107.261 44.298 107.012L41.5043 109.875C42.5067 110.853 43.7619 111.364 45.1625 111.364V107.364ZM44.3153 107.029C44.0772 106.791 43.9776 106.554 43.9806 106.199L39.9808 106.165C39.9686 107.582 40.4826 108.853 41.4869 109.857L44.3153 107.029ZM43.9806 106.164C43.9778 105.848 44.0654 105.627 44.3066 105.389L41.4956 102.543C40.4945 103.532 39.9684 104.788 39.9808 106.199L43.9806 106.164ZM44.298 105.397C44.5531 105.148 44.8056 105.045 45.1625 105.045V101.045C43.7619 101.045 42.5067 101.556 41.5043 102.535L44.298 105.397ZM45.1625 105.045C45.4442 105.045 45.6902 105.127 45.9788 105.406L48.7553 102.526C47.7712 101.577 46.5474 101.045 45.1625 101.045V105.045ZM45.9873 105.414C46.2527 105.667 46.3417 105.895 46.3444 106.199L50.3442 106.164C50.3318 104.742 49.7692 103.492 48.7468 102.518L45.9873 105.414ZM46.3445 106.156C46.3414 106.394 46.2847 106.572 46.1824 106.735L49.5744 108.855C50.0782 108.049 50.332 107.152 50.3442 106.207L46.3445 106.156ZM46.1779 106.743C46.0482 106.952 45.8899 107.108 45.6863 107.231L47.7523 110.656C48.5033 110.203 49.1177 109.593 49.5789 108.848L46.1779 106.743ZM45.7065 107.219C45.5404 107.316 45.3718 107.364 45.1625 107.364V111.364C46.0744 111.364 46.9437 111.131 47.7322 110.668L45.7065 107.219ZM83.0636 108.443L81.6494 109.857L81.658 109.866L81.6668 109.875L83.0636 108.443ZM82.1432 106.182L84.1431 106.199L84.1433 106.182L84.1431 106.164L82.1432 106.182ZM83.0636 103.966L81.6667 102.535L81.6581 102.543L83.0636 103.966ZM87.5295 103.966L86.1412 105.406L86.1498 105.414L87.5295 103.966ZM88.5068 106.182L90.5067 106.207L90.5069 106.186L90.5067 106.164L88.5068 106.182ZM88.0409 107.795L86.3449 106.735L86.3404 106.743L88.0409 107.795ZM86.8818 108.943L87.8947 110.668L87.9048 110.662L87.9148 110.656L86.8818 108.943ZM85.325 107.364C84.9681 107.364 84.7156 107.261 84.4605 107.012L81.6668 109.875C82.6692 110.853 83.9244 111.364 85.325 111.364V107.364ZM84.4778 107.029C84.2397 106.791 84.1401 106.554 84.1431 106.199L80.1433 106.165C80.1311 107.582 80.6451 108.853 81.6494 109.857L84.4778 107.029ZM84.1431 106.164C84.1403 105.848 84.2279 105.627 84.4691 105.389L81.6581 102.543C80.657 103.532 80.1309 104.788 80.1433 106.199L84.1431 106.164ZM84.4605 105.397C84.7156 105.148 84.9681 105.045 85.325 105.045V101.045C83.9244 101.045 82.6692 101.556 81.6668 102.535L84.4605 105.397ZM85.325 105.045C85.6067 105.045 85.8527 105.127 86.1413 105.406L88.9178 102.526C87.9337 101.577 86.7099 101.045 85.325 101.045V105.045ZM86.1498 105.414C86.4152 105.667 86.5042 105.895 86.5069 106.199L90.5067 106.164C90.4943 104.742 89.9317 103.492 88.9093 102.518L86.1498 105.414ZM86.507 106.156C86.5039 106.394 86.4472 106.572 86.3449 106.735L89.7369 108.855C90.2407 108.049 90.4945 107.152 90.5067 106.207L86.507 106.156ZM86.3404 106.743C86.2107 106.952 86.0524 107.108 85.8488 107.231L87.9148 110.656C88.6658 110.203 89.2802 109.593 89.7414 108.848L86.3404 106.743ZM85.869 107.219C85.7029 107.316 85.5343 107.364 85.325 107.364V111.364C86.2369 111.364 87.1062 111.131 87.8947 110.668L85.869 107.219ZM123.226 108.443L121.812 109.857L121.821 109.866L121.829 109.875L123.226 108.443ZM122.306 106.182L124.306 106.199L124.306 106.182L124.306 106.164L122.306 106.182ZM123.226 103.966L121.829 102.535L121.821 102.543L123.226 103.966ZM127.692 103.966L126.304 105.406L126.312 105.414L127.692 103.966ZM128.669 106.182L130.669 106.207L130.669 106.186L130.669 106.164L128.669 106.182ZM128.203 107.795L126.507 106.735L126.503 106.743L128.203 107.795ZM127.044 108.943L128.057 110.668L128.067 110.662L128.077 110.656L127.044 108.943ZM125.488 107.364C125.131 107.364 124.878 107.261 124.623 107.012L121.829 109.875C122.832 110.853 124.087 111.364 125.488 111.364V107.364ZM124.64 107.029C124.402 106.791 124.303 106.554 124.306 106.199L120.306 106.165C120.294 107.582 120.808 108.853 121.812 109.857L124.64 107.029ZM124.306 106.164C124.303 105.848 124.39 105.627 124.632 105.389L121.821 102.543C120.819 103.532 120.293 104.788 120.306 106.199L124.306 106.164ZM124.623 105.397C124.878 105.148 125.131 105.045 125.488 105.045V101.045C124.087 101.045 122.832 101.556 121.829 102.535L124.623 105.397ZM125.488 105.045C125.769 105.045 126.015 105.127 126.304 105.406L129.08 102.526C128.096 101.577 126.872 101.045 125.488 101.045V105.045ZM126.312 105.414C126.578 105.667 126.667 105.895 126.669 106.199L130.669 106.164C130.657 104.742 130.094 103.492 129.072 102.518L126.312 105.414ZM126.669 106.156C126.666 106.394 126.61 106.572 126.507 106.735L129.899 108.855C130.403 108.049 130.657 107.152 130.669 106.207L126.669 106.156ZM126.503 106.743C126.373 106.952 126.215 107.108 126.011 107.231L128.077 110.656C128.828 110.203 129.443 109.593 129.904 108.848L126.503 106.743ZM126.031 107.219C125.865 107.316 125.697 107.364 125.488 107.364V111.364C126.399 111.364 127.269 111.131 128.057 110.668L126.031 107.219Z" fill="black" mask="url(#path-1-outside-1_548_120)"/>
</g>
</svg>
