<?xml version="1.0" encoding="UTF-8"?>
<svg width="1200px" height="300px" viewBox="0 0 1200 300" version="1.1" xmlns="http://www.w3.org/2000/svg" xmlns:xlink="http://www.w3.org/1999/xlink">
    <title>CommandersAct_Hor_onLight@3x</title>
    <defs>
        <linearGradient x1="72.8200758%" y1="14.4738185%" x2="26.7076998%" y2="86.3206813%" id="linearGradient-1">
            <stop stop-color="#EFEFEF" offset="0%"></stop>
            <stop stop-color="#DBDBDB" offset="100%"></stop>
        </linearGradient>
        <path d="M88.6277257,4.18203416 C98.1720341,-1.37143275 113.654009,-1.39851976 123.219337,4.12826587 L195.689888,46.001292 C199.32273,48.1003252 202.694193,51.3496921 205.478341,55.1817637 L205.913015,55.7915873 C210.21,61.9365924 213,69.4598427 213,76.1269038 L213,159.631771 C213,170.745915 205.276768,184.269309 195.734542,189.845963 L123.174683,232.251291 C113.639234,237.823984 98.2073942,237.77182 88.716874,232.140813 L17.1952474,189.704911 C7.70017423,184.071203 0.00264470775,170.492009 0.00233411353,159.380241 L0,75.8753739 C-0.000310660636,64.7612294 7.73361614,51.2512132 17.2809366,45.6959937 L88.6277257,4.18203416 Z" id="path-2"></path>
        <filter x="-9.2%" y="-5.7%" width="118.3%" height="116.5%" filterUnits="objectBoundingBox" id="filter-3">
            <feOffset dx="0" dy="6" in="SourceAlpha" result="shadowOffsetOuter1"></feOffset>
            <feGaussianBlur stdDeviation="5.5" in="shadowOffsetOuter1" result="shadowBlurOuter1"></feGaussianBlur>
            <feColorMatrix values="0 0 0 0 0   0 0 0 0 0   0 0 0 0 0  0 0 0 0.185779065 0" type="matrix" in="shadowBlurOuter1" result="shadowMatrixOuter1"></feColorMatrix>
            <feOffset dx="0" dy="1" in="SourceAlpha" result="shadowOffsetOuter2"></feOffset>
            <feGaussianBlur stdDeviation="2.5" in="shadowOffsetOuter2" result="shadowBlurOuter2"></feGaussianBlur>
            <feColorMatrix values="0 0 0 0 0   0 0 0 0 0   0 0 0 0 0  0 0 0 0.275868663 0" type="matrix" in="shadowBlurOuter2" result="shadowMatrixOuter2"></feColorMatrix>
            <feMerge>
                <feMergeNode in="shadowMatrixOuter1"></feMergeNode>
                <feMergeNode in="shadowMatrixOuter2"></feMergeNode>
            </feMerge>
        </filter>
        <linearGradient x1="50%" y1="83.2341755%" x2="72.9297353%" y2="19.1308685%" id="linearGradient-4">
            <stop stop-color="#002CBD" offset="0%"></stop>
            <stop stop-color="#F40754" offset="100%"></stop>
        </linearGradient>
        <filter x="-50.3%" y="-88.1%" width="200.6%" height="276.1%" filterUnits="objectBoundingBox" id="filter-5">
            <feGaussianBlur stdDeviation="10.8574246" in="SourceGraphic"></feGaussianBlur>
        </filter>
        <radialGradient cx="50%" cy="9.9806355%" fx="50%" fy="9.9806355%" r="90.7138554%" gradientTransform="translate(0.500000,0.099806),scale(1.000000,0.992344),rotate(90.000000),translate(-0.500000,-0.099806)" id="radialGradient-6">
            <stop stop-color="#FCFCFC" offset="0%"></stop>
            <stop stop-color="#CCCCCC" offset="100%"></stop>
        </radialGradient>
    </defs>
    <g id="CommandersAct_Hor_onLight" stroke="none" stroke-width="1" fill="none" fill-rule="evenodd">
        <g id="CA-H-W" transform="translate(29.000000, 26.000000)">
            <g id="Group" transform="translate(0.000000, 0.000000)">
                <g id="Group" transform="translate(-0.000000, 5.801170)">
                    <g id="Polygon">
                        <use fill="black" fill-opacity="1" filter="url(#filter-3)" xlink:href="#path-2"></use>
                        <use fill="url(#linearGradient-1)" fill-rule="evenodd" xlink:href="#path-2"></use>
                    </g>
                    <path d="M92.0822206,43.9436203 C99.7218264,39.5005718 112.100694,39.4947038 119.740744,43.9360652 L163.194477,69.196858 C170.830252,73.635734 177.02027,84.4620628 177.02027,93.3701635 L177.02027,143.768914 C177.02027,152.680586 170.834527,163.500858 163.194477,167.942219 L119.740744,193.203012 C112.104969,197.641888 99.737597,197.615352 92.1137562,193.141577 L49.0613294,167.877821 C41.4391403,163.405015 35.2601351,152.558914 35.2601351,143.644648 L35.2601351,93.1246996 C35.2601351,84.2138935 41.4529135,73.3886565 49.092865,68.9454069 L92.0822206,43.9436203 Z" id="Polygon-Copy" fill="url(#linearGradient-4)"></path>
                    <polygon id="Polygon-Copy-11" fill-opacity="0.27" fill="#000000" filter="url(#filter-5)" points="106.208522 170.409357 137.442568 152.424672 106.208522 133.426901 72.6790541 152.424673"></polygon>
                    <ellipse id="Oval" fill="url(#radialGradient-6)" cx="106.5" cy="118.19883" rx="31.6621622" ry="31.9064327"></ellipse>
                </g>
            </g>
            <g id="Group-2" transform="translate(270.000000, 86.000000)">
                <path d="M733.522239,1 L757,73 L740.052147,73 L735.914877,59.0054945 L713.035276,59.0054945 L708.947853,73 L692,73 L715.427914,1 L733.522239,1 Z M724.621359,20 L724.330097,20 L717,46 L732,46 L724.621359,20 Z" id="Combined-Shape" fill="#F40754"></path>
                <g id="COMMANDERS" transform="translate(-0.000000, 2.000000)" fill="#002D9F" fill-rule="nonzero">
                    <path d="M52,49.1871658 C51.200492,56.5668449 48.5701107,62.2139037 44.1088561,66.1283422 C39.6476015,70.0427807 33.7072571,72 26.2878229,72 C21.1070111,72 16.5258303,70.7005348 12.5442804,68.1016043 C8.56273063,65.5026738 5.48462485,61.8208556 3.3099631,57.0561497 C1.13530135,52.2914439 0.0319803198,46.8449198 -9.59232693e-14,40.7165775 L-9.59232693e-14,31.6203209 C-9.59232693e-14,25.3957219 1.08733087,19.8770053 3.26199262,15.0641711 C5.43665437,10.2513369 8.56273063,6.53743316 12.6402214,3.92245989 C16.7177122,1.30748663 21.4108241,2.27373675e-13 26.7195572,2.27373675e-13 C34.202952,2.27373675e-13 40.1113161,2.02941176 44.4446494,6.08823529 C48.7779828,10.1470588 51.296433,15.7540107 52,22.9090909 L46.0516605,22.9090909 C44.5805658,11.0053476 38.1365314,5.05347594 26.7195572,5.05347594 C20.3874539,5.05347594 15.3425584,7.42780749 11.5848708,12.1764706 C7.82718327,16.9251337 5.94833948,23.486631 5.94833948,31.8609626 L5.94833948,40.4278075 C5.94833948,48.513369 7.77921279,54.9625668 11.4409594,59.7754011 C15.102706,64.5882353 20.0516605,66.9946524 26.2878229,66.9946524 C32.4600246,66.9946524 37.1131611,65.5106952 40.2472325,62.5427807 C43.3813038,59.5748663 45.3161132,55.1229947 46.0516605,49.1871658 L52,49.1871658 Z" id="Path"></path>
                    <path d="M118,39.802139 C118,46.2513369 116.877386,51.9144385 114.632159,56.7914439 C112.386931,61.6684492 109.180617,65.4224599 105.013216,68.0534759 C100.845815,70.684492 96.0323054,72 90.5726872,72 C82.3348018,72 75.6798825,69.0721925 70.6079295,63.2165775 C65.5359765,57.3609626 63,49.459893 63,39.513369 L63,32.2941176 C63,25.9090909 64.1387665,20.2540107 66.4162996,15.328877 C68.6938326,10.4037433 71.9162996,6.61764706 76.0837004,3.97058824 C80.2511013,1.32352941 85.0484581,2.27373675e-13 90.4757709,2.27373675e-13 C95.9030837,2.27373675e-13 100.692364,1.29946524 104.843612,3.89839572 C108.99486,6.4973262 112.201175,10.171123 114.462555,14.9197861 C116.723935,19.6684492 117.903084,25.171123 118,31.4278075 L118,39.802139 Z M112,32.1522248 C112,23.6661462 110.081365,17.0192558 106.244094,12.2115535 C102.406824,7.40385116 97.1507312,5 90.4758155,5 C83.9298838,5 78.7140982,7.41191777 74.8284589,12.2357533 C70.9428196,17.0595889 69,23.7952121 69,32.442623 L69,39.7993755 C69,48.1563882 70.9347582,54.7790788 74.8042745,59.6674473 C78.6737908,64.5558158 83.9298838,67 90.5725534,67 C97.311961,67 102.568054,64.5880822 106.340832,59.7642467 C110.113611,54.9404111 112,48.2209212 112,39.6057767 L112,32.1522248 Z" id="Shape"></path>
                    <polygon id="Path" points="140.900214 1 166.927299 62.7788462 193.051319 1 201 1 201 71 195.038489 71 195.038489 40.5192308 195.523165 9.26923077 169.253742 71 164.649323 71 138.476835 9.50961538 138.961511 40.3269231 138.961511 71 133 71 133 1"></polygon>
                    <polygon id="Path" points="225.900214 1 251.927299 62.7788462 278.051319 1 286 1 286 71 280.038489 71 280.038489 40.5192308 280.523165 9.26923077 254.253742 71 249.649323 71 223.476835 9.50961538 223.961511 40.3269231 223.961511 71 218 71 218 1"></polygon>
                    <path d="M341.496308,51.3846154 L309.503692,51.3846154 L302.243642,71 L296,71 L322.668581,1 L328.331419,1 L355,71 L348.804758,71 L341.496308,51.3846154 Z M311,46 L339,46 L325,8 L311,46 Z" id="Shape"></path>
                    <polygon id="Path" points="417 71 411.099631 71 370.948339 11.0961538 370.948339 71 365 71 365 1 370.948339 1 411.147601 60.9519231 411.147601 1 417 1"></polygon>
                    <path d="M434,71 L434,1 L453.776482,1 C459.574992,1 464.774214,2.30608974 469.37415,4.91826923 C473.974085,7.53044872 477.56171,11.2724359 480.137026,16.1442308 C482.712342,21.0160256 484,26.5608974 484,32.7788462 L484,39.2211538 C484,45.4711538 482.720441,51.0160256 480.161322,55.8557692 C477.602203,60.6955128 473.99838,64.4294872 469.349854,67.0576923 C464.701328,69.6858974 459.364431,71 453.339164,71 L434,71 Z M440,6 L440,66 L453.377551,66 C460.809524,66 466.771259,63.5541299 471.262755,58.6623897 C475.754252,53.7706496 478,47.1547715 478,38.8147554 L478,32.6559743 C478,24.6046512 475.786565,18.1571772 471.359694,13.3135525 C466.932823,8.46992783 461.10034,6.03207698 453.862245,6 L440,6 Z" id="Shape"></path>
                    <polygon id="Path" points="537.046358 37.4423077 503.97351 37.4423077 503.97351 66 542 66 542 71 498 71 498 1 541.757174 1 541.757174 6.04807692 503.97351 6.04807692 503.97351 32.4423077 537.046358 32.4423077"></polygon>
                    <path d="M580.553398,41.8653846 L560.019417,41.8653846 L560.019417,71 L554,71 L554,1 L576.961165,1 C584.501618,1 590.391586,2.81089744 594.631068,6.43269231 C598.87055,10.0544872 600.990291,15.1185897 600.990291,21.625 C600.990291,26.1121795 599.66343,30.0705128 597.009709,33.5 C594.355987,36.9294872 590.796117,39.3012821 586.330097,40.6153846 L604,70.375 L604,71 L597.640777,71 L580.553398,41.8653846 Z M560,37 L578.326389,37 C583.349537,37 587.384259,35.5791667 590.430556,32.7375 C593.476852,29.8958333 595,26.2145833 595,21.69375 C595,16.7208333 593.412037,12.8619792 590.236111,10.1171875 C587.060185,7.37239583 582.604167,6 576.868056,6 L560,6 L560,37 Z" id="Shape"></path>
                    <path d="M656.061303,53.8074866 C656.061303,49.9251337 654.704342,46.8529412 651.990421,44.5909091 C649.276501,42.328877 644.311622,40.1791444 637.095785,38.1417112 C629.879949,36.1042781 624.61175,33.8823529 621.291188,31.4759358 C616.565773,28.0748663 614.203065,23.6149733 614.203065,18.0962567 C614.203065,12.7379679 616.398148,8.38235294 620.788314,5.02941176 C625.17848,1.67647059 630.789911,2.27373675e-13 637.622605,2.27373675e-13 C642.252235,2.27373675e-13 646.394955,0.898395722 650.050766,2.69518717 C653.706577,4.49197861 656.54023,6.99465241 658.551724,10.2032086 C660.563218,13.4117647 661.568966,16.9893048 661.568966,20.9358289 L655.630268,20.9358289 C655.630268,16.1550802 654.001916,12.3128342 650.745211,9.40909091 C647.488506,6.50534759 643.114304,5.05347594 637.622605,5.05347594 C632.290549,5.05347594 628.044061,6.2486631 624.883142,8.63903743 C621.722222,11.0294118 620.141762,14.1497326 620.141762,18 C620.141762,21.5614973 621.56258,24.4652406 624.404215,26.7112299 C627.245849,28.9572193 631.795658,30.9385027 638.05364,32.6550802 C644.311622,34.3716578 649.053001,36.1524064 652.277778,37.9973262 C655.502554,39.842246 657.929119,42.0481283 659.557471,44.6149733 C661.185824,47.1818182 662,50.2139037 662,53.7112299 C662,59.2299465 659.804917,63.657754 655.414751,66.9946524 C651.024585,70.3315508 645.237548,72 638.05364,72 C633.136654,72 628.626756,71.1176471 624.523946,69.3529412 C620.421137,67.5882353 617.30811,65.1176471 615.184866,61.9411765 C613.061622,58.7647059 612,55.1229947 612,51.0160428 L617.890805,51.0160428 C617.890805,55.9572193 619.726692,59.855615 623.398467,62.7112299 C627.070243,65.5668449 631.9553,66.9946524 638.05364,66.9946524 C643.481481,66.9946524 647.839719,65.7914439 651.128352,63.3850267 C654.416986,60.9786096 656.061303,57.7860963 656.061303,53.8074866 Z" id="Path"></path>
                </g>
                <path d="M814.802048,47.7196262 L814.901024,48.0160214 C814.571102,56.4468601 812.07198,62.885158 807.403584,67.3311081 C802.735187,71.7770583 795.963639,74 787.088737,74 C778.180843,74 770.939163,71.266605 765.363481,65.799733 C759.787799,60.332861 757,53.2359137 757,44.5086782 L757,29.4913218 C757,20.7970193 759.680576,13.7083051 765.041809,8.22496662 C770.403042,2.74162812 777.37254,0 785.950512,0 C795.05636,0 802.01761,2.28880666 806.834471,6.86648865 C811.651332,11.4441706 814.373148,17.9483335 815,26.3791722 L814.901024,26.6755674 L798.619454,26.6755674 C798.388509,21.9990865 797.341022,18.524711 795.476962,16.2523364 C793.612903,13.9799619 790.437451,12.8437917 785.950512,12.8437917 C782.156409,12.8437917 779.170659,14.3669185 776.993174,17.4132176 C774.815689,20.4595168 773.726962,24.4525788 773.726962,29.3925234 L773.726962,44.5086782 C773.726962,49.4815558 774.914664,53.4993171 777.290102,56.5620828 C779.665541,59.6248484 782.93172,61.1562083 787.088737,61.1562083 C791.113786,61.1562083 793.967568,60.085903 795.650171,57.9452603 C797.332773,55.8046177 798.289532,52.396107 798.520478,47.7196262 L814.802048,47.7196262 Z" id="Path" fill="#F40754"></path>
                <polygon id="Path" fill="#F40754" points="872 13.8571429 852.869565 13.8571429 852.869565 73 835.980978 73 835.980978 13.8571429 817 13.8571429 817 1 872 1"></polygon>
            </g>
        </g>
    </g>
</svg>