<svg width="386" height="105" viewBox="0 0 386 105" fill="none" xmlns="http://www.w3.org/2000/svg">
<path d="M70.1125 83.9407H28.7298L21.8823 103.665H0L37.3636 0H61.6276L98.9912 103.665H76.9601L70.1125 83.9407ZM64.4558 67.3305L49.4211 24.0254L34.3864 67.3305H64.4558Z" fill="black"/>
<path d="M237.858 60.8051C237.858 63.7712 237.659 66.4407 237.262 68.8136H176.974C177.47 74.7458 179.555 79.3927 183.226 82.7542C186.898 86.1158 191.414 87.7966 196.772 87.7966C204.513 87.7966 210.021 84.4845 213.296 77.8602H235.774C233.392 85.7698 228.827 92.2952 222.079 97.4364C215.33 102.479 207.044 105 197.219 105C189.28 105 182.135 103.27 175.783 99.8093C169.531 96.25 164.619 91.2571 161.046 84.8305C157.573 78.404 155.836 70.9887 155.836 62.5848C155.836 54.0819 157.573 46.6172 161.046 40.1907C164.52 33.7641 169.383 28.8206 175.635 25.3602C181.887 21.8997 189.081 20.1695 197.219 20.1695C205.059 20.1695 212.055 21.8503 218.208 25.2119C224.46 28.5734 229.273 33.3686 232.648 39.5975C236.121 45.7274 237.858 52.7966 237.858 60.8051ZM216.273 54.8729C216.174 49.5339 214.239 45.2825 210.468 42.1186C206.696 38.8559 202.082 37.2246 196.624 37.2246C191.463 37.2246 187.097 38.8065 183.524 41.9703C180.051 45.0353 177.917 49.3362 177.123 54.8729H216.273Z" fill="black"/>
<path d="M352.209 20.3178C362.331 20.3178 370.469 23.4322 376.622 29.661C382.874 35.791 386 44.3927 386 55.4661V103.665H365.16V58.2839C365.16 51.8573 363.522 46.9633 360.247 43.6017C356.973 40.1412 352.507 38.411 346.85 38.411C341.194 38.411 336.678 40.1412 333.304 43.6017C330.029 46.9633 328.392 51.8573 328.392 58.2839V103.665H307.551V58.2839C307.551 51.8573 305.914 46.9633 302.639 43.6017C299.364 40.1412 294.898 38.411 289.242 38.411C283.486 38.411 278.921 40.1412 275.547 43.6017C272.272 46.9633 270.634 51.8573 270.634 58.2839V103.665H249.794V21.5042H270.634V31.4407C273.314 27.9802 276.738 25.2613 280.906 23.2839C285.173 21.3065 289.837 20.3178 294.898 20.3178C301.349 20.3178 307.105 21.702 312.166 24.4703C317.227 27.1398 321.147 30.9958 323.926 36.0381C326.605 31.2924 330.476 27.4859 335.537 24.6186C340.697 21.7514 346.255 20.3178 352.209 20.3178Z" fill="black"/>
<path d="M131.022 78.3051V38.5593H149.481V21.5042H131.022V1.18644H110.033V21.5042V38.5593V78.1568C110.033 95.1624 118.816 103.665 136.381 103.665H149.481V86.1653H139.805C136.629 86.1653 134.347 85.572 132.957 84.3856C131.667 83.1003 131.022 81.0734 131.022 78.3051Z" fill="black"/>
</svg>
