<svg width="183" height="40" viewBox="0 0 183 40" fill="none" xmlns="http://www.w3.org/2000/svg">
<g clip-path="url(#clip0_472_2142)">
<path d="M182.997 15.6893V12.8959C182.997 11.5672 181.924 10.4882 180.603 10.4882H177.448V2.79053H171.325V10.4909H167.384V15.6893H171.325V23.043C171.325 25.8918 172.015 30.3578 178.444 30.3578C180.242 30.3578 181.621 30.0111 182.578 29.3952V24.1192C181.544 24.7739 180.819 25.1595 179.668 25.1595C177.909 25.1595 177.448 24.2357 177.448 23.043V15.6893H182.997Z" fill="#535FED"/>
<path d="M161.884 8.33283C163.837 8.33283 165.329 6.83214 165.329 4.8682C165.329 2.90426 163.837 1.40356 161.884 1.40356C159.931 1.40356 158.439 2.90426 158.439 4.8682C158.439 6.83214 159.931 8.33283 161.884 8.33283ZM158.784 29.742H164.907V10.4909H161.178C159.857 10.4909 158.784 11.57 158.784 12.8987V29.742Z" fill="#535FED"/>
<path d="M126.136 9.87524C123.265 9.87524 121.083 11.3371 120.126 13.7643V12.8988C120.126 11.5701 119.054 10.4911 117.732 10.4911H114.003V29.7421H120.126V20.1942C120.126 16.9987 121.619 14.8433 123.684 14.8433C126.249 14.8433 126.249 17.154 126.249 18.541V29.7449H132.372V18.5382C132.375 16.1887 132.375 9.87524 126.136 9.87524Z" fill="#535FED"/>
<path d="M105.081 23.3508C104.507 24.5436 103.36 25.1594 101.752 25.1594C99.3414 25.1594 98.001 23.8113 97.6176 21.4618H111.7C111.7 15.3897 108.716 9.87231 101.559 9.87231C95.3587 9.87231 91.1885 13.9528 91.1885 20.1136C91.1885 26.2745 95.2843 30.355 101.598 30.355C106.841 30.355 110.553 27.5838 111.7 23.348H105.081V23.3508ZM101.559 14.8792C103.856 14.8792 105.004 16.1497 104.811 17.9971H97.6921C98.1913 15.9195 99.5317 14.8792 101.559 14.8792Z" fill="#535FED"/>
<path d="M56.7204 30.3579C62.0794 30.3579 65.9435 27.9696 65.9435 23.7726C65.9435 16.4189 54.0423 18.9987 54.0423 16.111C54.0423 15.3787 54.809 14.6492 56.5301 14.6492C58.5214 14.6492 59.6302 15.6506 59.2854 17.2289H65.2567C65.9076 12.4162 61.8119 9.87524 56.4915 9.87524C51.3256 9.87524 47.7262 12.2636 47.7262 16.344C47.7262 23.8531 59.6274 21.4647 59.6274 24.1221C59.6274 24.9682 58.4028 25.6228 56.6818 25.6228C54.6546 25.6228 53.43 24.7379 53.43 23.351H47.4973C47.4973 27.5868 51.0194 30.3579 56.7204 30.3579Z" fill="#535FED"/>
<path d="M78.6114 9.77808C72.8028 9.77808 68.0947 14.4161 68.0947 20.1359C68.0947 20.3079 68.1002 20.4771 68.1085 20.6435V38.8017C71.2362 38.8017 73.7709 37.3648 73.7709 33.8835V29.3342C75.2189 30.0749 76.8655 30.4937 78.6114 30.4937C84.4199 30.4937 89.128 25.8557 89.128 20.1359C89.128 14.4133 84.4199 9.77808 78.6114 9.77808ZM78.7079 24.699C76.1677 24.699 74.1074 22.6269 74.1074 20.0721C74.1074 17.5173 76.1677 15.4452 78.7079 15.4452C81.2481 15.4452 83.3084 17.5173 83.3084 20.0721C83.3112 22.6297 81.2509 24.699 78.7079 24.699Z" fill="#535FED"/>
<path d="M155.292 19.7032V1.38696C152.164 1.38696 149.627 2.83218 149.627 6.33842V10.9376C148.176 10.1942 146.53 9.77531 144.781 9.77531C138.972 9.77531 134.264 14.4133 134.264 20.1331C134.264 25.853 138.972 30.491 144.781 30.491C150.59 30.491 155.298 25.853 155.298 20.1331C155.3 19.9889 155.298 19.8474 155.292 19.7032ZM144.982 24.7628C142.442 24.7628 140.382 22.6907 140.382 20.1359C140.382 17.5811 142.442 15.509 144.982 15.509C147.523 15.509 149.583 17.5811 149.583 20.1359C149.583 22.6907 147.525 24.7628 144.982 24.7628Z" fill="#535FED"/>
<path d="M19.8776 0C8.90039 0 0 8.94868 0 19.9889C0 31.0291 8.90039 39.9806 19.8776 39.9806C30.8549 39.9806 39.7553 31.0291 39.7553 19.9889C39.7525 8.94868 30.8549 0 19.8776 0ZM19.8556 7.21221C21.9821 7.21221 23.7086 8.94591 23.7086 11.0874C23.7086 13.2261 21.9848 14.9626 19.8556 14.9626C17.7263 14.9626 16.0053 13.2288 16.0053 11.0874C16.0053 8.94591 17.7291 7.21221 19.8556 7.21221ZM30.2839 22.2774L22.5695 30.0361C21.8028 30.8072 20.7933 31.1845 19.7866 31.1706C18.8516 31.1567 17.9194 30.8017 17.1912 30.1082L17.1885 30.1054C17.1664 30.0832 17.1471 30.061 17.1278 30.0388L9.4134 22.2774C7.77233 20.7656 7.77233 18.3107 9.27549 16.7989C10.0285 16.0416 11.0131 15.6644 12.0005 15.6644C12.9879 15.6644 13.9725 16.0416 14.7255 16.7989L19.7811 21.8835L24.8395 16.7989C26.3426 15.2871 28.7835 15.2871 30.2867 16.7989C31.0397 17.5562 31.4148 18.5465 31.4148 19.5368C31.4148 20.527 31.0369 21.5201 30.2839 22.2774Z" fill="#535FED"/>
</g>
<defs>
<clipPath id="clip0_472_2142">
<rect width="183" height="40" fill="white"/>
</clipPath>
</defs>
</svg>
