<svg width="144" height="34" viewBox="0 0 144 34" fill="none" xmlns="http://www.w3.org/2000/svg">
<path d="M70.1967 21.6948C71.1618 20.5316 71.7713 19.0145 71.7713 17.2445C71.7713 13.654 69.1301 10.9738 65.8285 10.9738C62.5269 10.9738 59.8856 13.654 59.8856 17.2445C59.8856 20.9868 62.5269 23.8187 65.8285 23.8187C65.9809 23.8187 66.1332 23.7682 66.2348 23.7682L64.6094 20.8351L68.6221 18.7111L70.1967 21.6948ZM132.571 13.654C132.571 11.9852 131.962 11.0244 129.27 11.0244H127.441V16.3343H129.778C131.505 16.3343 132.571 15.3734 132.571 13.654ZM134.755 19.2674C134.755 19.3179 135.06 19.7225 135.568 20.6328L139.835 28.269H133.841L129.93 20.8856H127.39V28.269H122.006V6.42242H129.676C131.911 6.42242 132.978 6.57413 133.943 6.92813C136.432 7.88897 138.006 10.1141 138.006 13.3C138.057 15.6263 136.94 18.1548 134.755 19.2674ZM118.146 28.3195H103.924V6.42242H117.689V11.0244H109.308V14.9689H116.013V19.5708H109.308V23.7176H118.146V28.3195ZM99.0983 20.2788C99.0983 25.1841 95.492 28.7241 89.9555 28.7241C84.3682 28.7241 80.711 25.2347 80.711 20.2788V6.42242H86.0952V20.2788C86.0952 22.5545 87.619 23.8187 89.9047 23.8187C92.1904 23.8187 93.7142 22.605 93.7142 20.2788V6.42242H99.0983V20.2788ZM77.3586 17.2445C77.3586 21.0879 75.5809 24.4762 72.7364 26.499L74.0063 28.7747L69.9936 30.8986L68.7237 28.3195C67.8094 28.5218 66.8444 28.6735 65.8285 28.6735C59.1745 28.6735 54.3491 23.667 54.3491 17.2445C54.3491 10.9738 59.2253 6.06843 65.8285 6.06843C72.4825 6.06843 77.3586 10.9232 77.3586 17.2445ZM42.2602 12.6932C42.2602 15.4746 52.165 14.9689 52.165 21.897C52.165 25.5381 49.3713 28.6735 44.3936 28.6735C39.2126 28.6735 36.3682 25.5381 36.3682 25.5381L39.2126 21.4419C39.2126 21.4419 41.7015 23.7176 44.4951 23.7176C45.6126 23.7176 46.7809 23.313 46.7809 21.9476C46.7809 19.3685 36.8761 19.4191 36.8761 12.6932C36.8761 8.64753 40.2793 5.96729 44.6475 5.96729C49.3713 5.96729 51.7078 8.44525 51.7078 8.44525L49.4221 12.8449C49.4221 12.8449 47.1872 10.9232 44.5459 10.9232C43.4793 10.9738 42.2602 11.4795 42.2602 12.6932Z" fill="white"/>
<path d="M4.87598 5.3606V29.0782H20.0633L15.4918 20.5318L19.7077 18.3067L25.4474 29.0782H28.6982V5.3606H4.87598Z" fill="white"/>
</svg>
