<svg width="120" height="100" viewBox="0 0 120 100" fill="none" xmlns="http://www.w3.org/2000/svg">
<g clip-path="url(#clip0_139_192)">
<path d="M120.012 41.04V-0.00390625H19.9219V15.8133L39.8433 3.10092L120.012 41.04Z" fill="white" fill-opacity="0.75"/>
<path d="M19.9213 100.016V15.8132L0.0078125 28.5216L12.8396 100.012L19.9213 100.016Z" fill="white" fill-opacity="0.5"/>
<path fill-rule="evenodd" clip-rule="evenodd" d="M39.8433 3.10083L120.012 41.0399L113.652 50.9207L81.834 100.016H19.9219V15.8132L39.8433 3.10083ZM80.122 43.8795C79.266 43.8795 78.5844 43.6577 78.0732 43.2221C77.562 42.7825 77.3084 42.1924 77.3084 41.44C77.3084 40.6875 77.562 40.0935 78.0732 39.6579C78.5844 39.2183 79.266 39.0005 80.122 39.0005C80.978 39.0005 81.6596 39.2223 82.1708 39.6579C82.682 40.0975 82.9357 40.6875 82.9357 41.44C82.9357 42.1924 82.682 42.7865 82.1708 43.2221C81.6596 43.6617 80.978 43.8795 80.122 43.8795ZM58.8017 51.0753C58.342 51.5663 58.1122 52.2594 58.1122 53.1544H58.1043V63.7757H53.4162V46.5923H57.9497V49.8713H58.0409C58.2033 48.9209 58.5917 48.1407 59.202 47.5269C60.0342 46.6913 61.1596 46.2754 62.5784 46.2754C64.2467 46.2754 65.5862 46.8616 66.5967 48.0259C67.6073 49.1941 68.1145 50.7466 68.1145 52.6831V63.7757H63.4264V53.1544C63.4264 52.2594 63.1926 51.5663 62.725 51.0753C62.2574 50.5882 61.5718 50.3426 60.7396 50.3426C59.9074 50.3426 59.2614 50.5842 58.8017 51.0753ZM47.3926 62.2352C46.0773 63.4744 44.2788 64.0922 41.9852 64.0926C39.6719 64.0922 37.8655 63.4704 36.562 62.2194C35.2583 60.9679 34.6083 59.2611 34.6083 57.0948V46.5962H39.2964V57.0631C39.2964 58.0215 39.5263 58.7542 39.986 59.265C40.4457 59.7759 41.1312 60.0294 41.9872 60.0294C42.8432 60.0294 43.505 59.7759 43.9726 59.265C44.4402 58.7542 44.6741 58.0215 44.6741 57.0631V46.5962H49.3621V57.0948C49.3621 59.2809 48.7043 60.9957 47.3926 62.2352ZM87.6238 59.5304H82.6226V46.5962H73.0879V50.8139H78.2476V59.5304H72.3072V63.7797H87.6238V59.5304ZM100.598 59.562C99.659 59.562 99.1914 59.0947 99.1914 58.1562V50.8139H105.599V46.5962H99.1914V41.7529H94.5033V46.5962H89.9698V50.8139H94.5033V58.1562C94.5033 59.9066 95.0026 61.2808 96.0052 62.2788C96.8414 63.1144 97.9391 63.5936 99.2944 63.7322L102.005 59.562H100.598ZM48.205 78.2385C47.4718 79.5929 46.3068 81.0107 44.7018 82.4879V82.4839L40.5764 86.2937H49.5484V90.5113H34.7906V86.1075L42.0427 79.1098C42.8947 78.2742 43.5367 77.5059 43.9647 76.797C44.3927 76.0881 44.6067 75.3159 44.6067 74.4842C44.6067 73.5694 44.3649 72.8605 43.8736 72.3615C43.3822 71.8626 42.7124 71.6131 41.8564 71.6131C40.9212 71.6131 40.1841 71.8903 39.6531 72.4408C39.1221 72.9952 38.8565 73.7595 38.8565 74.7377H34.1685C34.1685 73.2407 34.4894 71.9418 35.1235 70.8487C35.7576 69.7557 36.6571 68.9082 37.8262 68.3023C38.9913 67.6964 40.3664 67.3954 41.9516 67.3954C43.4297 67.3954 44.7176 67.6726 45.8114 68.2231C46.9052 68.7775 47.7611 69.5419 48.3754 70.52C48.9896 71.5022 49.2987 72.6546 49.2987 73.9892C49.2987 75.4703 48.9342 76.8841 48.205 78.2385ZM53.86 86.456V90.5153H68.8674V86.456H64.3022V67.7083H59.1465L53.8006 71.4586V76.302L59.6141 71.9893V86.456H53.86ZM81.8419 77.395H86.53V83.3829L81.8974 90.5153H81.8419V86.3293H71.8356V79.7989L80.4034 67.7083H85.7176L76.2146 81.1137V82.2661H81.8419V77.395Z" fill="white"/>
</g>
<defs>
<clipPath id="clip0_139_192">
<rect width="120" height="100" fill="white"/>
</clipPath>
</defs>
</svg>
