<svg width="125" height="104" viewBox="0 0 125 104" fill="none" xmlns="http://www.w3.org/2000/svg">
<g clip-path="url(#clip0_106_308)">
<path d="M125.013 42.6815V-0.00415039H20.752V16.4457L41.5034 3.22487L125.013 42.6815Z" fill="#F489A0"/>
<path d="M20.752 104.017V16.4458L0.00878906 29.6625L13.3753 104.012L20.752 104.017Z" fill="#F4EA78"/>
<path d="M125.013 42.6815L41.5034 3.22485L20.752 16.4457V104.016H85.2437L118.387 52.9575L125.013 42.6815Z" fill="#10AABF"/>
<path d="M43.732 66.6564C46.1221 66.6564 47.9962 66.0139 49.3667 64.7247C50.7331 63.4356 51.4184 61.6522 51.4184 59.3787V48.4602H46.5349V59.3458C46.5349 60.3425 46.2914 61.1045 45.8043 61.6358C45.3172 62.1671 44.6278 62.4307 43.7361 62.4307C42.8445 62.4307 42.1304 62.1671 41.6515 61.6358C41.1727 61.1045 40.9332 60.3425 40.9332 59.3458V48.4602H36.0498V59.3787C36.0498 61.6316 36.7268 63.4068 38.0849 64.7083C39.443 66.0098 41.3254 66.6564 43.7361 66.6564H43.732Z" fill="white"/>
<path d="M60.5333 55.2806C60.5333 54.3497 60.7727 53.629 61.2516 53.1183C61.7304 52.6076 62.4033 52.3563 63.2702 52.3563C64.137 52.3563 64.8512 52.6117 65.3383 53.1183C65.8254 53.629 66.0689 54.3497 66.0689 55.2806V66.3268H70.9524V54.7904C70.9524 52.7764 70.424 51.1619 69.3713 49.9469C68.3187 48.736 66.9234 48.1265 65.1855 48.1265C63.7077 48.1265 62.5354 48.5589 61.6685 49.428C61.0328 50.0663 60.6282 50.8777 60.459 51.8662H60.364V48.456H55.6416V66.3268H60.525V55.2806H60.5333Z" fill="white"/>
<path d="M91.2741 61.9117H86.0645V48.4602H76.1325V52.8466H81.5072V61.9117H75.3193V66.331H91.2741V61.9117Z" fill="white"/>
<path d="M81.326 44.951C81.8585 45.4041 82.5685 45.6347 83.4602 45.6347C84.3518 45.6347 85.0618 45.4082 85.5944 44.951C86.1269 44.498 86.3911 43.8802 86.3911 43.0976C86.3911 42.3151 86.1269 41.7014 85.5944 41.2442C85.0618 40.7912 84.3518 40.5605 83.4602 40.5605C82.5685 40.5605 81.8585 40.7871 81.326 41.2442C80.7935 41.6973 80.5293 42.3151 80.5293 43.0976C80.5293 43.8802 80.7935 44.4939 81.326 44.951Z" fill="white"/>
<path d="M104.789 61.9447C103.811 61.9447 103.324 61.4587 103.324 60.4825V52.8466H109.999V48.4602H103.324V43.4231H98.4402V48.4602H93.7178V52.8466H98.4402V60.4825C98.4402 62.303 98.9603 63.7322 100.005 64.7701C100.876 65.6391 102.019 66.1374 103.431 66.2816L106.255 61.9447H104.793H104.789Z" fill="white"/>
<path d="M46.564 85.7875C48.2359 84.2512 49.4495 82.7767 50.2132 81.3682C50.9727 79.9596 51.3525 78.4892 51.3525 76.9489C51.3525 75.5609 51.0305 74.3624 50.3907 73.3409C49.7508 72.3236 48.8592 71.5287 47.7199 70.9521C46.5805 70.3796 45.2389 70.0913 43.6992 70.0913C42.048 70.0913 40.6156 70.4043 39.4019 71.0345C38.1842 71.6646 37.2471 72.546 36.5866 73.6828C35.9262 74.8195 35.5918 76.1704 35.5918 77.7273H40.4752C40.4752 76.71 40.7518 75.9151 41.3049 75.3385C41.8581 74.766 42.6259 74.4777 43.6001 74.4777C44.4918 74.4777 45.1894 74.7371 45.7013 75.2561C46.2131 75.775 46.465 76.5123 46.465 77.4637C46.465 78.3286 46.242 79.1317 45.7962 79.869C45.3504 80.6062 44.6817 81.4052 43.7941 82.2743L36.2399 89.5519V94.1319H51.6126V89.7455H42.2668L46.564 85.7834V85.7875Z" fill="white"/>
<path d="M56.1039 89.9144V94.136H71.7367V89.9144H66.9812V70.4167H61.6107L56.042 74.3171V79.3542L62.0978 74.869V89.9144H56.1039Z" fill="white"/>
<path d="M90.1348 80.491H85.2513V85.5569H79.3896V84.3584L89.2885 70.4167H83.7529L74.8281 82.991V89.7826H85.2513V94.136H85.3091L90.1348 86.7184V80.491Z" fill="white"/>
</g>
<defs>
<clipPath id="clip0_106_308">
<rect width="125" height="104" fill="white"/>
</clipPath>
</defs>
</svg>
