<?xml version="1.0" standalone="no"?>
<!DOCTYPE svg PUBLIC "-//W3C//DTD SVG 20010904//EN"
 "http://www.w3.org/TR/2001/REC-SVG-20010904/DTD/svg10.dtd">
<svg version="1.0" xmlns="http://www.w3.org/2000/svg"
 width="1000.000000pt" height="1000.000000pt" viewBox="0 0 1000.000000 1000.000000"
 preserveAspectRatio="xMidYMid meet">
<metadata>
Created by potrace 1.14, written by Peter Selinger 2001-2017
</metadata>
<g transform="translate(0.000000,1000.000000) scale(0.100000,-0.100000)"
fill="#000000" stroke="none">
<path d="M1659 8603 c-1 -307 0 -562 1 -568 1 -5 2 -20 1 -32 -1 -13 -1 -30
-1 -38 0 -8 0 -22 0 -30 0 -24 0 -49 1 -69 0 -18 -18 -36 -70 -66 -14 -9 -53
-33 -86 -54 -138 -88 -164 -105 -253 -162 -51 -32 -121 -77 -156 -99 -66 -42
-171 -109 -246 -156 -25 -16 -49 -32 -55 -37 -5 -4 -48 -31 -95 -60 -47 -29
-190 -120 -319 -202 -128 -83 -238 -150 -242 -150 -5 0 -9 -5 -9 -10 0 -6 -8
-13 -17 -17 -45 -16 -113 -67 -109 -82 3 -9 12 -59 20 -111 19 -112 22 -129
36 -195 6 -27 11 -57 12 -65 0 -8 5 -37 10 -65 5 -27 11 -62 13 -77 2 -15 6
-35 9 -45 3 -10 8 -32 10 -48 8 -58 17 -110 26 -155 5 -25 12 -58 14 -75 3
-16 7 -41 10 -55 3 -13 8 -40 11 -60 3 -20 8 -47 11 -60 6 -27 8 -41 18 -110
4 -25 9 -52 12 -61 2 -9 7 -32 9 -50 3 -19 7 -45 10 -59 3 -14 8 -41 11 -60 3
-19 7 -42 9 -50 3 -8 7 -33 10 -55 4 -22 8 -47 10 -55 2 -8 7 -31 10 -50 3
-19 10 -57 15 -85 5 -27 11 -63 14 -80 3 -16 8 -43 11 -60 3 -16 10 -57 16
-90 6 -33 13 -71 16 -85 3 -14 6 -34 8 -45 1 -11 5 -36 9 -55 3 -19 8 -48 11
-65 3 -16 12 -66 20 -110 8 -44 17 -93 20 -110 3 -16 10 -51 16 -77 6 -26 8
-51 5 -57 -4 -5 -2 -12 3 -16 5 -3 10 -13 9 -23 0 -9 5 -42 11 -72 6 -30 13
-68 16 -85 3 -16 8 -46 11 -65 4 -19 8 -44 9 -55 2 -11 6 -33 10 -50 3 -16 8
-43 11 -60 2 -16 8 -50 14 -75 5 -25 12 -61 14 -80 3 -19 12 -71 20 -115 22
-118 26 -136 32 -175 3 -19 8 -44 11 -54 3 -11 7 -34 9 -52 1 -17 10 -67 19
-110 9 -44 18 -95 21 -114 7 -50 11 -75 14 -75 1 0 3 -9 5 -20 15 -108 22
-150 25 -150 1 0 3 -11 5 -25 2 -14 6 -38 9 -55 3 -16 11 -59 17 -95 5 -36 14
-85 19 -110 11 -49 17 -86 26 -140 3 -19 7 -46 10 -60 3 -14 7 -38 10 -55 2
-16 9 -50 14 -75 5 -25 12 -63 16 -85 4 -22 8 -47 10 -55 1 -8 6 -35 10 -60 4
-25 8 -49 10 -55 1 -5 9 -53 19 -105 28 -162 32 -185 35 -185 1 0 3 -13 5 -30
8 -67 20 -139 31 -185 6 -26 8 -38 24 -130 5 -30 12 -68 15 -85 3 -16 10 -55
15 -85 6 -30 12 -65 14 -76 2 -12 7 -39 11 -60 4 -22 8 -43 9 -49 2 -5 6 -32
10 -60 4 -27 10 -58 13 -67 4 -17 150 -18 2881 -18 l2877 1 35 57 c19 31 37
61 39 67 2 5 7 12 10 15 13 11 52 71 61 95 5 14 14 25 20 25 5 0 10 4 10 9 0
5 22 42 48 83 27 40 75 115 108 166 32 51 67 103 77 114 9 12 17 27 17 35 0 7
5 13 10 13 6 0 10 6 10 14 0 8 3 16 8 18 11 5 52 66 52 78 0 5 5 10 10 10 6 0
10 6 10 13 0 7 9 23 20 35 11 12 20 23 20 26 0 5 204 321 261 404 16 23 29 46
29 50 0 4 11 19 24 34 14 14 22 29 19 32 -4 3 -1 6 5 6 7 0 12 4 12 9 0 10 59
103 89 141 12 14 21 28 21 33 0 4 16 30 35 57 19 27 35 53 35 57 0 5 11 21 25
36 14 15 23 27 19 27 -4 0 0 8 8 18 9 9 39 55 68 101 29 46 56 89 61 95 15 18
79 118 79 122 0 6 43 67 51 74 3 3 14 20 24 39 9 19 21 39 27 45 5 6 58 88
119 181 60 94 114 177 119 185 6 8 47 71 92 140 45 69 114 176 155 238 40 62
73 117 73 122 0 6 4 10 8 10 4 0 16 15 26 33 11 17 56 88 101 157 179 273 219
335 218 340 -1 3 6 14 15 25 22 26 62 83 62 89 0 2 25 40 55 84 30 44 55 82
55 85 0 3 24 40 53 83 29 44 56 87 60 97 3 9 11 17 17 17 5 0 10 5 10 10 0 6
18 38 40 71 22 33 40 63 40 65 0 3 5 10 10 17 19 22 80 119 80 127 0 5 4 10 8
12 4 2 48 66 97 143 48 77 115 180 147 229 l58 89 0 1708 0 1709 -4170 0
-4170 0 -1 -557z"/>
</g>
</svg>
